{"accessors" : [{"bufferView" : 0, "byteOffset" : 0, "componentType" : 5123, "count" : 258, "type" : "SCALAR", "max" : [218], "min" : [0]}, {"bufferView" : 1, "byteOffset" : 0, "componentType" : 5126, "count" : 219, "type" : "VEC3", "max" : [0.002053485019132495, 0.002053485019132495, 0.0034010137896984816], "min" : [-0.002053485019132495, -0.002053485019132495, 1.5023540072434116E-05], "name" : "POSITION"}, {"bufferView" : 1, "byteOffset" : 12, "componentType" : 5126, "count" : 219, "type" : "VEC3", "max" : [0.9973557591438293, 0.9973557591438293, 1.0000044107437134], "min" : [-0.9973558187484741, -0.9973557591438293, -1.0000044107437134], "name" : "NORMAL"}, {"bufferView" : 0, "byteOffset" : 516, "componentType" : 5123, "count" : 18, "type" : "SCALAR", "max" : [14], "min" : [0]}, {"bufferView" : 2, "byteOffset" : 0, "componentType" : 5126, "count" : 15, "type" : "VEC3", "max" : [0.0018206225940957665, 0.0018206225940957665, 0.0030185922514647245], "min" : [-0.0018206225940957665, -0.0018206225940957665, 0.0030185922514647245], "name" : "POSITION"}, {"bufferView" : 2, "byteOffset" : 12, "componentType" : 5126, "count" : 15, "type" : "VEC3", "max" : [-3.973536166768099E-08, 0, 1.0000044107437134], "min" : [-3.973536166768099E-08, 0, 1.0000044107437134], "name" : "NORMAL"}, {"bufferView" : 0, "byteOffset" : 552, "componentType" : 5123, "count" : 1071, "type" : "SCALAR", "max" : [940], "min" : [0]}, {"bufferView" : 3, "byteOffset" : 0, "componentType" : 5126, "count" : 941, "type" : "VEC3", "max" : [0.006282608490437269, 0.005860482808202505, 0.008833589032292366], "min" : [-0.005379853304475546, -0.006340108346194029, 0.0006168063846416771], "name" : "POSITION"}, {"bufferView" : 3, "byteOffset" : 12, "componentType" : 5126, "count" : 941, "type" : "VEC3", "max" : [0.9684926867485046, 0.9982312321662903, 0.9999246001243591], "min" : [-0.9847711324691772, -0.9859689474105835, -0.14621642231941223], "name" : "NORMAL"}], "asset" : {"generator" : "Aspose.3D 24.1.0", "version" : "2.0"}, "buffers" : [{"uri" : "data:application/octet-stream;base64,", "byteLength" : 35040}], "bufferViews" : [{"buffer" : 0, "byteOffset" : 0, "byteLength" : 2696, "target" : 34963}, {"buffer" : 0, "byteOffset" : 2700, "byteLength" : 6192, "byteStride" : 24, "target" : 34962}, {"buffer" : 0, "byteOffset" : 8896, "byteLength" : 432, "byteStride" : 24, "target" : 34962}, {"buffer" : 0, "byteOffset" : 9332, "byteLength" : 25704, "byteStride" : 24, "target" : 34962}], "materials" : [{"name" : "Black", "pbrMetallicRoughness" : {"baseColorFactor" : [0.0281733479350805, 0.0281733479350805, 0.0281733479350805, 1], "metallicFactor" : 0.400000005960464, "roughnessFactor" : 0.415087103843689}, "emissiveFactor" : [0, 0, 0], "alphaMode" : "OPAQUE", "doubleSided" : false}, {"name" : "Brown", "pbrMetallicRoughness" : {"baseColorFactor" : [0.0915483012795448, 0.0709244757890701, 0.0449027977883816, 1], "metallicFactor" : 0.400000005960464, "roughnessFactor" : 0.415087103843689}, "emissiveFactor" : [0, 0, 0], "alphaMode" : "OPAQUE", "doubleSided" : false}, {"name" : "Plant_Green", "pbrMetallicRoughness" : {"baseColorFactor" : [0.197653397917747, 0.314487487077713, 0.0426995903253555, 1], "metallicFactor" : 0.400000005960464, "roughnessFactor" : 0.415087103843689}, "emissiveFactor" : [0, 0, 0], "alphaMode" : "OPAQUE", "doubleSided" : false}], "meshes" : [{"primitives" : [{"attributes" : {"POSITION" : 1, "NORMAL" : 2}, "indices" : 0, "material" : 0, "mode" : 4}, {"attributes" : {"POSITION" : 4, "NORMAL" : 5}, "indices" : 3, "material" : 1, "mode" : 4}, {"attributes" : {"POSITION" : 7, "NORMAL" : 8}, "indices" : 6, "material" : 2, "mode" : 4}]}], "nodes" : [{"matrix" : [100, 0, 0, 0, 0, -1.3435885581891682E-05, -99.99999657714513, 0, 0, 99.99999657714513, -1.3435885581891682E-05, 0, 0, 0, 0, 1], "mesh" : 0, "name" : "Houseplant_7"}, {"children" : [0], "name" : "RootNode"}], "scene" : 0, "scenes" : [{"nodes" : [1]}]}